<svg version="1.1" id="Camada_1" xmlns="http://www.w3.org/2000/svg" xmlns:xlink="http://www.w3.org/1999/xlink" x="0px" y="0px"
	 viewBox="0 0 150 150" style="enable-background:new 0 0 150 150;" xml:space="preserve">
<g class="st0">
	<polygon class="st1" points="38.5,54.2 38.5,68.5 60.3,60.1 	"/>
	<polygon class="st1" points="48.1,39.5 41.1,57.7 59.2,39.5 	"/>
	<polygon class="st1" points="62.9,60.1 59.2,35.9 41.1,54.1 	"/>
	<polyline class="st1" points="73.1,29.1 83.6,43.2 108.4,42.3 	"/>
	<polygon class="st1" points="103.4,62.6 108.4,87.5 83.3,80.9 	"/>
	<polyline class="st1" points="31.4,116.7 30.1,98.7 17.8,82.7 26.4,62.6 27.3,54.1 	"/>
	<polyline class="st1" points="30.3,101.2 20.9,91.2 21.5,87.5 	"/>
	<line class="st1" x1="22" y1="72.8" x2="20.9" y2="61.4"/>
	<polyline class="st1" points="26.4,62.6 41.4,54.2 34,79.5 41.2,68.5 56.1,85.5 62.9,60.1 83.6,43.2 59.2,35.9 73.1,29.1 
		93.5,26.6 108.4,42.3 103.4,62.6 84.9,58 83.3,80.9 72.5,99.8 90.1,105 108.4,87.5 122,76.9 133.1,93.2 114.3,103.7 107.1,122.5 
		104.5,122.5 83.5,124.3 62.9,111.3 39.1,103.9 30.1,98.8 47.1,117.4 31.4,116.8 46.8,120.5 55.8,124.2 62.9,128.7 61.1,133 
		67.6,128.2 90.1,133 107.1,120 120.1,120.7 122.9,103.6 129.5,93.3 129.5,79.8 135.6,61.9 123.5,50.3 118.7,35.9 103.2,30.6 
		93.4,20.3 76.3,24.8 59.2,20.3 48.1,35.9 28.6,45 27.3,54.1 20.9,61.4 26.4,62.6 34,79.5 39.1,103.6 56.1,85.5 83.3,80.9 
		62.9,60.1 84.9,58.1 83.7,43.2 93.6,26.6 	"/>
	<line class="st1" x1="28.6" y1="45" x2="41.4" y2="54.2"/>
	<polyline class="st1" points="35,42 37.2,35.9 50.2,32 	"/>
	<polyline class="st1" points="48.1,35.9 73.1,29.1 59.2,20.3 	"/>
	<polyline class="st1" points="73.1,29.1 76.4,24.8 86.7,27 	"/>
	<polyline class="st1" points="95.8,22.7 96,29.1 103.4,30.6 	"/>
	<polyline class="st1" points="119.2,35.9 108.4,42.3 123.2,54.2 103.4,62.6 122,76.9 133.3,79.8 126.3,57.8 137.6,61.9 	"/>
	<polygon class="st1" points="90.1,105 114.3,102.5 104.5,120 	"/>
	<polyline class="st1" points="56.5,92.4 62.9,110.7 47.1,117.3 55.8,124.2 64.5,128.5 83.5,123 90.1,105 62.9,110.7 72.5,99.8 
		56.1,85.5 57.3,109 	"/>
	<polyline class="st1" points="39.1,103.6 47.1,117.3 61.1,133 73.1,129.4 	"/>
	<line class="st1" x1="83.5" y1="123" x2="90.1" y2="133"/>
	<polygon class="st1" points="123.2,54.2 122,76.9 126.3,57.8 124.5,50.3 	"/>
	<line class="st1" x1="83.3" y1="80.9" x2="90.1" y2="105"/>
	<polyline class="st1" points="17.8,82.7 34,79.5 30.1,98.7 	"/>
	<polyline class="st1" points="108.4,87.5 114.3,102.5 122,76.9 	"/>
	<line class="st1" x1="107.1" y1="120" x2="124.8" y2="103.6"/>
	<line class="st1" x1="83.6" y1="43.2" x2="103.4" y2="62.6"/>
</g>
<ellipse class="st2" cx="78.2" cy="125" rx="36.7" ry="5"/>
<text transform="matrix(1 0 0 1 24.3584 95.4287)" class="st3 st4 st5">AJAX</text>
<g class="st6">
	<line class="st7" x1="20.2" y1="125.9" x2="28.6" y2="116.7"/>
	<line class="st7" x1="56.5" y1="146.4" x2="61.1" y2="133"/>
	<line class="st8" x1="7.4" y1="94" x2="20.9" y2="91.2"/>
	<line class="st8" x1="7.4" y1="56.5" x2="20.9" y2="61.4"/>
	<line class="st7" x1="27.4" y1="24.5" x2="37.2" y2="35.9"/>
	<line class="st8" x1="54.3" y1="5" x2="59.2" y2="19.4"/>
	<line class="st8" x1="95.8" y1="5.1" x2="93.5" y2="19.7"/>
	<line class="st8" x1="75.7" y1="10.8" x2="77.6" y2="24.4"/>
	<line class="st8" x1="103.7" y1="30.8" x2="112.9" y2="20.3"/>
	<line class="st8" x1="136.3" y1="61.4" x2="150" y2="57.6"/>
	<line class="st8" x1="133.7" y1="94.4" x2="143.2" y2="96.1"/>
	<line class="st8" x1="124.8" y1="105" x2="133.7" y2="111.2"/>
	<line class="st8" x1="120.5" y1="122.8" x2="128.3" y2="131.4"/>
	<line class="st8" x1="90.7" y1="133.8" x2="92.8" y2="145.8"/>
	<line class="st8" x1="107.1" y1="123" x2="110.6" y2="128.5"/>
</g>
<g class="st9">
	<polygon class="st10" points="7.4,56.5 8.8,70.9 14.2,58.1 	"/>
	<polygon class="st10" points="71.3,16.1 54.3,24.5 67.7,28.7 76.8,23.7 	"/>
	<polygon class="st10" points="96.3,12.9 96.2,12.9 71.3,16.1 82.7,20.5 	"/>
	<polygon class="st10" points="84.2,33.7 84.2,33.8 108.3,58.1 114.4,32.6 84.2,33.7 	"/>
	<polygon class="st10" points="114.4,32.6 96.3,13 90.3,23.4 	"/>
	<polygon class="st10" points="32.5,47.5 32.3,47.6 32.4,47.6 	"/>
	<polygon class="st11" points="29.7,110.5 22.5,79.6 22.5,79.5 22.5,79.4 18.3,103 18.6,103.9 29.7,110.5 	"/>
	<polygon class="st11" points="30.5,48.2 30.5,47.7 15.1,57.1 14.7,57.1 	"/>
	<polygon class="st10" points="85.7,52.4 108.3,58.1 84.2,33.8 	"/>
	<polygon class="st10" points="84,133.8 109.7,130.1 92.1,111.2 	"/>
	<polygon class="st10" points="50.5,86.8 70.5,104.8 83.8,81.1 50.5,86.8 	"/>
	<polygon class="st11" points="23.5,79.3 16.3,62.9 17.5,80.5 23.5,79.3 	"/>
	<polygon class="st10" points="17.5,82.7 18.4,97.5 17.8,82.7 	"/>
	<polygon class="st10" points="52,116.3 50.9,95.4 50.9,95.4 50.5,86.9 29.7,109.4 58.8,118.4 50.9,95.4 	"/>
	<polygon class="st10" points="58.8,118.4 92.1,111.2 70.5,104.8 	"/>
	<polygon class="st10" points="92.1,111.2 121.6,108.1 114.4,89.3 	"/>
	<polygon class="st10" points="144.7,96.5 131,76 121.6,108.1 	"/>
	<polygon class="st10" points="83.8,81.1 85.7,52.4 58.8,54.9 	"/>
	<polygon class="st10" points="18.8,103.4 20.2,125.9 39.5,126.7 	"/>
	<polygon class="st11" points="109.7,131.5 112.9,131.5 121.6,109.5 	"/>
	<polygon class="st10" points="83.8,81.1 83.8,81.1 83.8,81.1 	"/>
	<polygon class="st11" points="50.5,86.9 50.5,86.8 32.2,65.5 23.5,79.5 23.5,79.5 29.7,109.5 29.9,109.5 	"/>
	<polygon class="st10" points="18.8,103.4 18.8,103.4 39.5,126.7 29.7,109.4 	"/>
	<polygon class="st10" points="84.2,33.7 84.2,33.7 84.1,33.7 84.2,33.8 	"/>
	<polygon class="st10" points="33.1,47.7 32.9,47.8 58.8,54.9 	"/>
	<polygon class="st10" points="85.7,52.4 85.7,52.4 85.7,52.4 85.7,52.3 	"/>
	<polygon class="st10" points="29.7,109.4 29.7,109.4 29.7,109.4 	"/>
	<polygon class="st11" points="83.8,80.5 83.8,80.5 92.1,110.9 114.4,89.2 83.8,80.7 	"/>
	<polygon class="st10" points="90.3,23.4 96.3,13 96.3,12.9 82.7,20.5 	"/>
	<ellipse transform="matrix(0.8609 -0.5088 0.5088 0.8609 -29.5977 53.8981)" class="st10" cx="83.8" cy="81.1" rx="0" ry="0"/>
	<polygon class="st11" points="31.5,48.5 31.5,48.2 15.6,57.1 16.1,62.9 23,79.3 	"/>
	<polygon class="st11" points="85.5,52.4 85.6,52.4 83.7,81.1 83.7,81.1 108.2,58.1 85.5,52.4 	"/>
	<polygon class="st11" points="83.8,80.5 70.5,104.5 92.1,110.8 83.8,80.5 	"/>
	<polygon class="st10" points="83.8,81.1 83.8,81.1 83.8,81.1 	"/>
	<polygon class="st10" points="32.9,47.8 33.1,47.7 32.5,47.5 32.5,47.5 32.4,47.6 	"/>
	<polygon class="st11" points="29.5,109.3 29.5,109.5 29.7,109.5 47.5,123.3 58.7,118.4 29.5,109.4 	"/>
	<polygon class="st11" points="31.5,65.4 31.5,48.5 23.2,79.5 23.3,79.5 32.2,65.5 50.5,86.9 58.8,54.9 84.1,33.7 67.7,28.7 
		55.9,35.2 58.5,54.9 	"/>
	<polygon class="st10" points="76.8,23.7 67.7,28.7 84.1,33.7 	"/>
	<polygon class="st10" points="96.4,12.9 96.3,12.9 96.3,13 	"/>
	<polygon class="st10" points="20.2,125.9 39.1,130.6 45.1,133.2 39.5,126.7 	"/>
	<polygon class="st10" points="15.3,47.4 7.4,56.5 14.2,58.1 	"/>
	<polygon class="st11" points="31.5,47.7 31.5,47.6 31.9,47.6 32.3,47.5 32.4,47.5 32.1,47.4 32.2,47.3 16.8,36 15.3,47.4 
		15.6,57.1 	"/>
	<polygon class="st10" points="40.6,24.5 24.6,32.2 24.6,32.2 24.6,32.2 16.8,36 32.2,47.3 	"/>
	<polygon class="st10" points="75.2,10.7 54.3,5 71.3,16.1 	"/>
	<polygon class="st11" points="55.9,35.2 67.7,28.7 54.3,24.5 71.3,16.1 40.6,24.5 54.3,24.5 	"/>
	<polygon class="st10" points="136.3,52.1 144.9,79.6 150.1,57.2 	"/>
	<polygon class="st10" points="67.3,138.7 71.3,141.8 71.3,141.8 92.1,146.4 84,133.8 	"/>
	<polygon class="st10" points="128.8,131 134.4,109.4 112.9,130.1 	"/>
	<polygon class="st11" points="144.7,96.5 121.6,108.1 112.9,130.1 134.2,109.4 144.5,96.6 144.5,79.6 130.8,76 	"/>
	<polygon class="st11" points="84,133.6 92.1,146 112.9,129.5 109.7,129.5 	"/>
	<polygon class="st10" points="23.4,79.3 23.4,79.3 23.4,79.3 	"/>
	<polygon class="st11" points="50.5,86.5 84.1,80.9 84.5,81.1 84.5,81.1 59.1,54.9 85.5,52.4 85.5,52.3 85.6,52.4 84.2,33.8 
		84.1,33.7 58.8,54.9 50.5,86.7 50.5,86.5 	"/>
	<polygon class="st10" points="114.4,89.3 131,76 108.3,58.1 	"/>
	<polygon class="st10" points="132.6,47.6 114.4,32.6 108.3,58.1 	"/>
	<polygon class="st10" points="71.3,16.1 96.2,12.9 96.3,12.9 96.4,12.9 96.3,13 114.4,32.6 127.6,24.5 108.3,17.9 99.2,16.1 
		99.1,8 108.3,17.9 96.2,5 75.2,10.7 87.9,13.4 	"/>
	<polygon class="st10" points="32.3,48.1 32.4,47.6 32.3,47.6 32.2,47.7 32.2,48.2 	"/>
	<polygon class="st10" points="32.2,47.6 32.2,47.7 32.3,47.6 	"/>
	<polygon class="st11" points="58.5,54.9 32.8,47.8 31.9,48.1 31.5,48.5 31.5,65.4 	"/>
	<polygon class="st10" points="32.4,47.6 32.3,48.1 32.9,47.8 	"/>
	<polygon class="st10" points="32.2,48.2 32.2,48.5 32.3,48.1 	"/>
	<polygon class="st11" points="32.3,47.3 54.3,24.5 40.6,24.5 32.2,47.3 	"/>
	<polygon class="st10" points="32.2,47.3 32.2,47.4 32.3,47.3 	"/>
	<polygon class="st10" points="32.2,47.4 32.5,47.5 32.3,47.3 	"/>
	<polygon class="st10" points="55.9,35.2 54.3,24.5 32.3,47.3 32.5,47.5 33.1,47.7 	"/>
	<polygon class="st10" points="58.8,54.9 55.9,35.2 33.1,47.7 	"/>
	<polygon class="st10" points="83.8,81.1 114.4,89.3 108.3,58.1 83.8,81.1 	"/>
	<polygon class="st10" points="83.8,81.1 83.8,81.1 83.8,81.1 	"/>
	<polygon class="st10" points="16.3,62.9 14.2,58.1 8.8,70.9 8.8,70.9 8.8,70.9 3.6,83.2 17.4,80.5 	"/>
	<polygon class="st10" points="15.9,57.1 14.2,58.1 15.9,57.1 	"/>
	<polygon class="st10" points="18.8,103 18.7,103.3 18.8,103.4 	"/>
	<polygon class="st10" points="18.7,103.3 18.9,106.5 18.9,106.5 18.9,106.5 20.2,125.9 18.8,103.4 	"/>
	<polygon class="st10" points="17.5,82.7 3.6,83.2 18.7,103.3 18.4,97.5 	"/>
	<polygon class="st10" points="15.9,57.1 15.3,47.4 14.2,58.1 	"/>
	<polygon class="st10" points="14.2,58.1 16.3,62.9 15.9,57.1 	"/>
	<polygon class="st10" points="18.8,103.4 18.7,103.3 18.8,103.4 	"/>
	<polygon class="st10" points="8.2,89.3 7.4,94 18.9,106.5 18.9,106.5 	"/>
	<polygon class="st10" points="18.9,106.5 18.9,106.5 18.9,106.5 	"/>
	<polygon class="st10" points="43.2,19.7 27.4,24.5 24.6,32.2 24.6,32.2 	"/>
	<polygon class="st10" points="24.6,32.2 24.6,32.2 24.6,32.2 	"/>
	<polygon class="st10" points="54.3,5 40.6,24.5 71.3,16.1 	"/>
	<polygon class="st10" points="87.9,13.4 75.2,10.7 71.3,16.1 	"/>
	<polygon class="st10" points="99.2,16.1 108.3,17.9 99.1,8 	"/>
	<polygon class="st10" points="150.1,57.2 127.6,24.5 134.1,42.7 	"/>
	<polygon class="st10" points="132.6,47.6 134.1,42.7 127.6,24.5 114.4,32.6 	"/>
	<polygon class="st10" points="136.3,52.1 150.1,57.2 134.1,42.7 	"/>
	<polygon class="st10" points="108.3,58.1 131,76 132.6,47.6 	"/>
	<polygon class="st10" points="131,76 144.9,79.6 136.3,52.1 	"/>
	<polygon class="st10" points="109.7,130.1 121.6,108.1 92.1,111.2 	"/>
	<polygon class="st10" points="56.5,146.4 71.3,141.8 64.5,140.3 	"/>
	<polygon class="st10" points="50.1,135.3 45.1,133.2 56.5,146.4 58.8,141 	"/>
	<polygon class="st10" points="67.3,138.7 60.7,140.7 50.1,135.3 58.8,141 56.5,146.4 64.5,140.3 71.3,141.8 71.3,141.8 	"/>
	<polygon class="st10" points="39.5,126.7 45.1,133.2 50.1,135.3 	"/>
	<polygon class="st10" points="29.7,109.4 39.5,126.7 47.5,123.3 	"/>
	<polygon class="st10" points="132.6,47.6 131,76 136.3,52.1 134.1,42.7 	"/>
	<polygon class="st10" points="17.4,80.5 17.5,82.7 17.8,82.7 18.4,97.5 18.8,103 23.4,79.3 	"/>
	<polygon class="st10" points="17.4,80.5 3.6,83.2 17.5,82.7 	"/>
	<polygon class="st10" points="18.4,97.5 18.7,103.3 18.8,103 	"/>
	<polygon class="st10" points="121.6,108.1 131,76 114.4,89.3 	"/>
	<polygon class="st10" points="52,116.3 50.9,95.4 50.9,95.4 	"/>
	<polygon class="st10" points="58.8,118.4 84,133.8 92.1,111.2 	"/>
	<polygon class="st10" points="50.5,86.8 50.5,86.9 50.9,95.4 58.8,118.4 70.5,104.8 	"/>
	<polygon class="st10" points="50.5,86.8 50.5,86.8 50.5,86.9 	"/>
	<polygon class="st10" points="47.5,123.3 67.3,138.7 84,133.8 58.8,118.4 	"/>
	<polygon class="st10" points="39.5,126.7 50.1,135.3 60.7,140.7 67.3,138.7 47.5,123.3 	"/>
	<polygon class="st10" points="82.7,20.5 71.3,16.1 76.8,23.7 	"/>
	<polygon class="st10" points="84.2,33.7 114.4,32.6 90.3,23.4 	"/>
	<polygon class="st10" points="90.3,23.4 82.7,20.5 76.8,23.7 84.1,33.7 84.2,33.7 	"/>
</g>
<g class="st0">
	<polygon class="st12" points="7.4,56.5 8.8,70.9 14.2,58.1 	"/>
	<polygon class="st12" points="71.3,16.1 54.3,24.5 67.7,28.7 76.8,23.7 	"/>
	<polygon class="st12" points="96.3,12.9 96.2,12.9 71.3,16.1 82.7,20.5 	"/>
	<polygon class="st12" points="84.2,33.7 84.2,33.8 108.3,58.1 114.4,32.6 84.2,33.7 	"/>
	<polygon class="st12" points="114.4,32.6 96.3,13 90.3,23.4 	"/>
	<polygon class="st12" points="32.5,47.5 32.3,47.6 32.4,47.6 	"/>
	<polygon class="st13" points="29.7,110.5 22.5,79.6 22.5,79.5 22.5,79.4 18.3,103 18.6,103.9 29.7,110.5 	"/>
	<polygon class="st13" points="30.5,48.2 30.5,47.7 15.1,57.1 14.7,57.1 	"/>
	<polygon class="st12" points="85.7,52.4 108.3,58.1 84.2,33.8 	"/>
	<polygon class="st12" points="84,133.8 109.7,130.1 92.1,111.2 	"/>
	<polygon class="st12" points="50.5,86.8 70.5,104.8 83.8,81.1 50.5,86.8 	"/>
	<polygon class="st13" points="23.5,79.3 16.3,62.9 17.5,80.5 23.5,79.3 	"/>
	<polygon class="st12" points="17.5,82.7 18.4,97.5 17.8,82.7 	"/>
	<polygon class="st12" points="52,116.3 50.9,95.4 50.9,95.4 50.5,86.9 29.7,109.4 58.8,118.4 50.9,95.4 	"/>
	<polygon class="st12" points="58.8,118.4 92.1,111.2 70.5,104.8 	"/>
	<polygon class="st12" points="92.1,111.2 121.6,108.1 114.4,89.3 	"/>
	<polygon class="st12" points="144.7,96.5 131,76 121.6,108.1 	"/>
	<polygon class="st12" points="83.8,81.1 85.7,52.4 58.8,54.9 	"/>
	<polygon class="st12" points="18.8,103.4 20.2,125.9 39.5,126.7 	"/>
	<polygon class="st13" points="109.7,131.5 112.9,131.5 121.6,109.5 	"/>
	<polygon class="st12" points="83.8,81.1 83.8,81.1 83.8,81.1 	"/>
	<polygon class="st13" points="50.5,86.9 50.5,86.8 32.2,65.5 23.5,79.5 23.5,79.5 29.7,109.5 29.9,109.5 	"/>
	<polygon class="st12" points="18.8,103.4 18.8,103.4 39.5,126.7 29.7,109.4 	"/>
	<polygon class="st12" points="84.2,33.7 84.2,33.7 84.1,33.7 84.2,33.8 	"/>
	<polygon class="st12" points="33.1,47.7 32.9,47.8 58.8,54.9 	"/>
	<polygon class="st12" points="85.7,52.4 85.7,52.4 85.7,52.4 85.7,52.3 	"/>
	<polygon class="st12" points="29.7,109.4 29.7,109.4 29.7,109.4 	"/>
	<polygon class="st13" points="83.8,80.5 83.8,80.5 92.1,110.9 114.4,89.2 83.8,80.7 	"/>
	<polygon class="st12" points="90.3,23.4 96.3,13 96.3,12.9 82.7,20.5 	"/>
	<ellipse transform="matrix(0.8609 -0.5088 0.5088 0.8609 -29.5977 53.8981)" class="st12" cx="83.8" cy="81.1" rx="0" ry="0"/>
	<polygon class="st13" points="31.5,48.5 31.5,48.2 15.6,57.1 16.1,62.9 23,79.3 	"/>
	<polygon class="st13" points="85.5,52.4 85.6,52.4 83.7,81.1 83.7,81.1 108.2,58.1 85.5,52.4 	"/>
	<polygon class="st13" points="83.8,80.5 70.5,104.5 92.1,110.8 83.8,80.5 	"/>
	<polygon class="st12" points="83.8,81.1 83.8,81.1 83.8,81.1 	"/>
	<polygon class="st12" points="32.9,47.8 33.1,47.7 32.5,47.5 32.5,47.5 32.4,47.6 	"/>
	<polygon class="st13" points="29.5,109.3 29.5,109.5 29.7,109.5 47.5,123.3 58.7,118.4 29.5,109.4 	"/>
	<polygon class="st13" points="31.5,65.4 31.5,48.5 23.2,79.5 23.3,79.5 32.2,65.5 50.5,86.9 58.8,54.9 84.1,33.7 67.7,28.7 
		55.9,35.2 58.5,54.9 	"/>
	<polygon class="st12" points="76.8,23.7 67.7,28.7 84.1,33.7 	"/>
	<polygon class="st12" points="96.4,12.9 96.3,12.9 96.3,13 	"/>
	<polygon class="st12" points="20.2,125.9 39.1,130.6 45.1,133.2 39.5,126.7 	"/>
	<polygon class="st12" points="15.3,47.4 7.4,56.5 14.2,58.1 	"/>
	<polygon class="st13" points="31.5,47.7 31.5,47.6 31.9,47.6 32.3,47.5 32.4,47.5 32.1,47.4 32.2,47.3 16.8,36 15.3,47.4 
		15.6,57.1 	"/>
	<polygon class="st12" points="40.6,24.5 24.6,32.2 24.6,32.2 24.6,32.2 16.8,36 32.2,47.3 	"/>
	<polygon class="st12" points="75.2,10.7 54.3,5 71.3,16.1 	"/>
	<polygon class="st13" points="55.9,35.2 67.7,28.7 54.3,24.5 71.3,16.1 40.6,24.5 54.3,24.5 	"/>
	<polygon class="st12" points="136.3,52.1 144.9,79.6 150.1,57.2 	"/>
	<polygon class="st12" points="67.3,138.7 71.3,141.8 71.3,141.8 92.1,146.4 84,133.8 	"/>
	<polygon class="st12" points="128.8,131 134.4,109.4 112.9,130.1 	"/>
	<polygon class="st13" points="144.7,96.5 121.6,108.1 112.9,130.1 134.2,109.4 144.5,96.6 144.5,79.6 130.8,76 	"/>
	<polygon class="st13" points="84,133.6 92.1,146 112.9,129.5 109.7,129.5 	"/>
	<polygon class="st12" points="23.4,79.3 23.4,79.3 23.4,79.3 	"/>
	<polygon class="st13" points="50.5,86.5 84.1,80.9 84.5,81.1 84.5,81.1 59.1,54.9 85.5,52.4 85.5,52.3 85.6,52.4 84.2,33.8 
		84.1,33.7 58.8,54.9 50.5,86.7 50.5,86.5 	"/>
	<polygon class="st12" points="114.4,89.3 131,76 108.3,58.1 	"/>
	<polygon class="st12" points="132.6,47.6 114.4,32.6 108.3,58.1 	"/>
	<polygon class="st12" points="71.3,16.1 96.2,12.9 96.3,12.9 96.4,12.9 96.3,13 114.4,32.6 127.6,24.5 108.3,17.9 99.2,16.1 
		99.1,8 108.3,17.9 96.2,5 75.2,10.7 87.9,13.4 	"/>
	<polygon class="st12" points="32.3,48.1 32.4,47.6 32.3,47.6 32.2,47.7 32.2,48.2 	"/>
	<polygon class="st12" points="32.2,47.6 32.2,47.7 32.3,47.6 	"/>
	<polygon class="st13" points="58.5,54.9 32.8,47.8 31.9,48.1 31.5,48.5 31.5,65.4 	"/>
	<polygon class="st12" points="32.4,47.6 32.3,48.1 32.9,47.8 	"/>
	<polygon class="st12" points="32.2,48.2 32.2,48.5 32.3,48.1 	"/>
	<polygon class="st13" points="32.3,47.3 54.3,24.5 40.6,24.5 32.2,47.3 	"/>
	<polygon class="st12" points="32.2,47.3 32.2,47.4 32.3,47.3 	"/>
	<polygon class="st12" points="32.2,47.4 32.5,47.5 32.3,47.3 	"/>
	<polygon class="st12" points="55.9,35.2 54.3,24.5 32.3,47.3 32.5,47.5 33.1,47.7 	"/>
	<polygon class="st12" points="58.8,54.9 55.9,35.2 33.1,47.7 	"/>
	<polygon class="st12" points="83.8,81.1 114.4,89.3 108.3,58.1 83.8,81.1 	"/>
	<polygon class="st12" points="83.8,81.1 83.8,81.1 83.8,81.1 	"/>
	<polygon class="st12" points="16.3,62.9 14.2,58.1 8.8,70.9 8.8,70.9 8.8,70.9 3.6,83.2 17.4,80.5 	"/>
	<polygon class="st12" points="15.9,57.1 14.2,58.1 15.9,57.1 	"/>
	<polygon class="st12" points="18.8,103 18.7,103.3 18.8,103.4 	"/>
	<polygon class="st12" points="18.7,103.3 18.9,106.5 18.9,106.5 18.9,106.5 20.2,125.9 18.8,103.4 	"/>
	<polygon class="st12" points="17.5,82.7 3.6,83.2 18.7,103.3 18.4,97.5 	"/>
	<polygon class="st12" points="15.9,57.1 15.3,47.4 14.2,58.1 	"/>
	<polygon class="st12" points="14.2,58.1 16.3,62.9 15.9,57.1 	"/>
	<polygon class="st12" points="18.8,103.4 18.7,103.3 18.8,103.4 	"/>
	<polygon class="st12" points="8.2,89.3 7.4,94 18.9,106.5 18.9,106.5 	"/>
	<polygon class="st12" points="18.9,106.5 18.9,106.5 18.9,106.5 	"/>
	<polygon class="st12" points="43.2,19.7 27.4,24.5 24.6,32.2 24.6,32.2 	"/>
	<polygon class="st12" points="24.6,32.2 24.6,32.2 24.6,32.2 	"/>
	<polygon class="st12" points="54.3,5 40.6,24.5 71.3,16.1 	"/>
	<polygon class="st12" points="87.9,13.4 75.2,10.7 71.3,16.1 	"/>
	<polygon class="st12" points="99.2,16.1 108.3,17.9 99.1,8 	"/>
	<polygon class="st12" points="150.1,57.2 127.6,24.5 134.1,42.7 	"/>
	<polygon class="st12" points="132.6,47.6 134.1,42.7 127.6,24.5 114.4,32.6 	"/>
	<polygon class="st12" points="136.3,52.1 150.1,57.2 134.1,42.7 	"/>
	<polygon class="st12" points="108.3,58.1 131,76 132.6,47.6 	"/>
	<polygon class="st12" points="131,76 144.9,79.6 136.3,52.1 	"/>
	<polygon class="st12" points="109.7,130.1 121.6,108.1 92.1,111.2 	"/>
	<polygon class="st12" points="56.5,146.4 71.3,141.8 64.5,140.3 	"/>
	<polygon class="st12" points="50.1,135.3 45.1,133.2 56.5,146.4 58.8,141 	"/>
	<polygon class="st12" points="67.3,138.7 60.7,140.7 50.1,135.3 58.8,141 56.5,146.4 64.5,140.3 71.3,141.8 71.3,141.8 	"/>
	<polygon class="st12" points="39.5,126.7 45.1,133.2 50.1,135.3 	"/>
	<polygon class="st12" points="29.7,109.4 39.5,126.7 47.5,123.3 	"/>
	<polygon class="st12" points="132.6,47.6 131,76 136.3,52.1 134.1,42.7 	"/>
	<polygon class="st12" points="17.4,80.5 17.5,82.7 17.8,82.7 18.4,97.5 18.8,103 23.4,79.3 	"/>
	<polygon class="st12" points="17.4,80.5 3.6,83.2 17.5,82.7 	"/>
	<polygon class="st12" points="18.4,97.5 18.7,103.3 18.8,103 	"/>
	<polygon class="st12" points="121.6,108.1 131,76 114.4,89.3 	"/>
	<polygon class="st12" points="52,116.3 50.9,95.4 50.9,95.4 	"/>
	<polygon class="st12" points="58.8,118.4 84,133.8 92.1,111.2 	"/>
	<polygon class="st12" points="50.5,86.8 50.5,86.9 50.9,95.4 58.8,118.4 70.5,104.8 	"/>
	<polygon class="st12" points="50.5,86.8 50.5,86.8 50.5,86.9 	"/>
	<polygon class="st12" points="47.5,123.3 67.3,138.7 84,133.8 58.8,118.4 	"/>
	<polygon class="st12" points="39.5,126.7 50.1,135.3 60.7,140.7 67.3,138.7 47.5,123.3 	"/>
	<polygon class="st12" points="82.7,20.5 71.3,16.1 76.8,23.7 	"/>
	<polygon class="st12" points="84.2,33.7 114.4,32.6 90.3,23.4 	"/>
	<polygon class="st12" points="90.3,23.4 82.7,20.5 76.8,23.7 84.1,33.7 84.2,33.7 	"/>
</g>
<g class="st14">
	<polygon class="st15" points="8.4,57.5 9.8,71.9 15.2,59.1 	"/>
	<polygon class="st15" points="72.3,17.1 55.3,25.5 68.7,29.7 77.8,24.7 	"/>
	<polygon class="st15" points="97.3,13.9 97.2,13.9 72.3,17.1 83.7,21.5 	"/>
	<polygon class="st15" points="85.2,34.7 85.2,34.8 109.3,59.1 115.4,33.6 85.2,34.7 	"/>
	<polygon class="st15" points="115.4,33.6 97.3,14 91.3,24.4 	"/>
	<polygon class="st15" points="33.5,48.5 33.3,48.6 33.4,48.6 	"/>
	<polygon class="st15" points="30.7,113 22,80.6 22,80.5 22,80.4 18.6,104 19.2,105.7 30.7,113 	"/>
	<polygon class="st15" points="30,49.2 30,48.7 15.3,58.1 14.5,58.1 	"/>
	<polygon class="st15" points="86.7,53.4 109.3,59.1 85.2,34.8 	"/>
	<polygon class="st15" points="85,134.8 110.7,131.1 93.1,112.2 	"/>
	<polygon class="st15" points="51.5,87.8 71.5,105.8 84.8,82.1 51.5,87.8 	"/>
	<polygon class="st15" points="23,80.3 16.6,63.9 17.3,81.5 23,80.3 	"/>
	<polygon class="st15" points="18.5,83.7 19.4,98.5 18.8,83.7 	"/>
	<polygon class="st15" points="53,117.3 51.9,96.4 51.9,96.4 51.5,87.9 30.7,110.4 59.8,119.4 51.9,96.4 	"/>
	<polygon class="st15" points="59.8,119.4 93.1,112.2 71.5,105.8 	"/>
	<polygon class="st15" points="93.1,112.2 122.6,109.1 115.4,90.3 	"/>
	<polygon class="st15" points="145.7,97.5 132,77 122.6,109.1 	"/>
	<polygon class="st15" points="84.8,82.1 86.7,53.4 59.8,55.9 	"/>
	<polygon class="st15" points="19.8,104.4 21.2,126.9 40.5,127.7 	"/>
	<polygon class="st15" points="110.7,134 113.9,134 122.6,112 	"/>
	<polygon class="st15" points="84.8,82.1 84.8,82.1 84.8,82.1 	"/>
	<polygon class="st15" points="50,87.9 50,87.8 32.5,67.3 24.5,82 24.5,82 30.7,112 30.9,112 	"/>
	<polygon class="st15" points="19.8,104.4 19.8,104.4 40.5,127.7 30.7,110.4 	"/>
	<polygon class="st15" points="85.2,34.7 85.2,34.7 85.1,34.7 85.2,34.8 	"/>
	<polygon class="st15" points="34.1,48.7 33.9,48.8 59.8,55.9 	"/>
	<polygon class="st15" points="86.7,53.4 86.7,53.4 86.7,53.4 86.7,53.3 	"/>
	<polygon class="st15" points="30.7,110.4 30.7,110.4 30.7,110.4 	"/>
	<polygon class="st15" points="84.8,83 84.8,83 93.1,112.7 115.4,90.6 84.8,82.7 	"/>
	<polygon class="st15" points="91.3,24.4 97.3,14 97.3,13.9 83.7,21.5 	"/>
	<ellipse transform="matrix(0.8609 -0.5088 0.5088 0.8609 -29.9674 54.546)" class="st15" cx="84.8" cy="82.1" rx="0" ry="0"/>
	<polygon class="st15" points="31,49.5 31,49.2 15.8,58.1 16.7,63.9 23,80.3 	"/>
	<polyline class="st15" points="84.3,82.1 84.6,82.1 108.4,59.1 85,53.4 85,53.4 85.8,53.4 	"/>
	<polygon class="st15" points="84.8,83 71.5,106.2 93.1,112.9 84.8,83 	"/>
	<polygon class="st15" points="84.8,82.1 84.8,82.1 84.8,82.1 	"/>
	<polygon class="st15" points="33.9,48.8 34.1,48.7 33.5,48.5 33.5,48.5 33.4,48.6 	"/>
	<polygon class="st15" points="29,110.3 29,112 30.7,112 48.5,125 59,119.8 29,110.4 	"/>
	<polygon class="st15" points="31,66.4 31,49.5 24.2,82 24.3,82 33.2,67.3 51.5,88.3 59.8,56.1 85.1,34.8 68.7,29.7 56.9,36.2 
		58.7,55.9 	"/>
	<polygon class="st15" points="77.8,24.7 68.7,29.7 85.1,34.7 	"/>
	<polygon class="st15" points="97.4,13.9 97.3,13.9 97.3,14 	"/>
	<polygon class="st15" points="21.2,126.9 40.1,131.6 46.1,134.2 40.5,127.7 	"/>
	<polygon class="st15" points="16.3,48.4 8.4,57.5 15.2,59.1 	"/>
	<polygon class="st15" points="31,48.7 31,48.6 32.2,48.6 32.9,48.5 33.2,48.5 33,48.4 33.1,48.3 17.8,37 16.3,48.4 15.8,58.1 	"/>
	<polygon class="st15" points="41.6,25.5 25.6,33.2 25.6,33.2 25.6,33.2 17.8,37 33.2,48.3 	"/>
	<polygon class="st15" points="76.2,11.7 55.3,6 72.3,17.1 	"/>
	<polygon class="st15" points="56.9,36.9 68.7,30 55.3,25.7 72.3,17.9 41.6,27 55.3,27 	"/>
	<polygon class="st15" points="137.3,53.1 145.9,80.6 151.1,58.2 	"/>
	<polygon class="st15" points="68.3,139.7 72.3,142.8 72.3,142.8 93.1,147.4 85,134.8 	"/>
	<polygon class="st15" points="129.8,131 135.4,110.4 113.9,130.2 	"/>
	<polygon class="st15" points="145.7,97.5 122.6,109.1 113.9,131.1 134.5,110.4 144,97.6 144,80.6 131.1,77 	"/>
	<polygon class="st15" points="85,135.3 93.1,148.1 113.9,132 110.7,132 	"/>
	<polygon class="st15" points="24.4,80.3 24.4,80.3 24.4,80.3 	"/>
	<polygon class="st15" points="115.4,90.3 132,77 109.3,59.1 	"/>
	<polygon class="st15" points="133.6,48.6 115.4,33.6 109.3,59.1 	"/>
	<polygon class="st15" points="72.3,17.1 97.2,13.9 97.3,13.9 97.4,13.9 97.3,14 115.4,33.6 128.6,25.5 109.3,18.9 100.2,17.1 
		100.1,9 109.3,18.9 97.2,6 76.2,11.7 88.9,14.4 	"/>
	<polygon class="st15" points="33.3,49.1 33.4,48.6 33.3,48.6 33.2,48.7 33.2,49.2 	"/>
	<polygon class="st15" points="33.2,48.6 33.2,48.7 33.3,48.6 	"/>
	<polygon class="st15" points="58.7,55.9 33.4,48.8 31.9,49.1 31,49.5 31,66.4 	"/>
	<polygon class="st15" points="33.4,48.6 33.3,49.1 33.9,48.8 	"/>
	<polygon class="st15" points="33.2,49.2 33.2,49.5 33.3,49.1 	"/>
	<polygon class="st15" points="33.3,49.1 55.3,27 41.6,27 33.2,49.4 	"/>
	<polygon class="st15" points="33.2,48.3 33.2,48.4 33.3,48.3 	"/>
	<polygon class="st15" points="33.2,48.4 33.5,48.5 33.3,48.3 	"/>
	<polygon class="st15" points="56.9,36.2 55.3,25.5 33.3,48.3 33.5,48.5 34.1,48.7 	"/>
	<polygon class="st15" points="59.8,55.9 56.9,36.2 34.1,48.7 	"/>
	<polygon class="st15" points="84.8,82.1 115.4,90.3 109.3,59.1 84.8,82.1 	"/>
	<polygon class="st15" points="84.8,82.1 84.8,82.1 84.8,82.1 	"/>
	<polygon class="st15" points="17.3,63.9 15.2,59.1 9.8,71.9 9.8,71.9 9.8,71.9 4.6,84.2 18.4,81.5 	"/>
	<polygon class="st15" points="16.9,58.1 15.2,59.1 16.9,58.1 	"/>
	<polygon class="st15" points="19.8,104 19.7,104.3 19.8,104.4 	"/>
	<polygon class="st15" points="19.7,104.3 19.9,107.5 19.9,107.5 19.9,107.5 21.2,126.9 19.8,104.4 	"/>
	<polygon class="st15" points="18.5,83.7 4.6,84.2 19.7,104.3 19.4,98.5 	"/>
	<polygon class="st15" points="16.9,58.1 16.3,48.4 15.2,59.1 	"/>
	<polygon class="st15" points="15.2,59.1 17.3,63.9 16.9,58.1 	"/>
	<polygon class="st15" points="19.8,104.4 19.7,104.3 19.8,104.4 	"/>
	<polygon class="st15" points="9.2,90.3 8.4,95 19.9,107.5 19.9,107.5 	"/>
	<polygon class="st15" points="19.9,107.5 19.9,107.5 19.9,107.5 	"/>
	<polygon class="st15" points="44.2,20.7 28.4,25.5 25.6,33.2 25.6,33.2 	"/>
	<polygon class="st15" points="25.6,33.2 25.6,33.2 25.6,33.2 	"/>
	<polygon class="st15" points="55.3,6 41.6,25.5 72.3,17.1 	"/>
	<polygon class="st15" points="88.9,14.4 76.2,11.7 72.3,17.1 	"/>
	<polygon class="st15" points="100.2,17.1 109.3,18.9 100.1,9 	"/>
	<polygon class="st15" points="151.1,58.2 128.6,25.5 135.1,43.7 	"/>
	<polygon class="st15" points="133.6,48.6 135.1,43.7 128.6,25.5 115.4,33.6 	"/>
	<polygon class="st15" points="137.3,53.1 151.1,58.2 135.1,43.7 	"/>
	<polygon class="st15" points="109.3,59.1 132,77 133.6,48.6 	"/>
	<polygon class="st15" points="132,77 145.9,80.6 137.3,53.1 	"/>
	<polygon class="st15" points="110.7,131.1 122.6,109.1 93.1,112.2 	"/>
	<polygon class="st15" points="57.5,147.4 72.3,142.8 65.5,141.3 	"/>
	<polygon class="st15" points="51.1,136.3 46.1,134.2 57.5,147.4 59.8,142 	"/>
	<polygon class="st15" points="68.3,139.7 61.7,141.7 51.1,136.3 59.8,142 57.5,147.4 65.5,141.3 72.3,142.8 72.3,142.8 	"/>
	<polygon class="st15" points="40.5,127.7 46.1,134.2 51.1,136.3 	"/>
	<polygon class="st15" points="30.7,110.4 40.5,127.7 48.5,124.3 	"/>
	<polygon class="st15" points="133.6,48.6 132,77 137.3,53.1 135.1,43.7 	"/>
	<polygon class="st15" points="18.4,81.5 18.5,83.7 18.8,83.7 19.4,98.5 19.8,104 24.4,80.3 	"/>
	<polygon class="st15" points="18.4,81.5 4.6,84.2 18.5,83.7 	"/>
	<polygon class="st15" points="19.4,98.5 19.7,104.3 19.8,104 	"/>
	<polygon class="st15" points="122.6,109.1 132,77 115.4,90.3 	"/>
	<polygon class="st15" points="53,117.3 51.9,96.4 51.9,96.4 	"/>
	<polygon class="st15" points="59.8,119.4 85,134.8 93.1,112.2 	"/>
	<polygon class="st15" points="51.5,87.8 51.5,87.9 51.9,96.4 59.8,119.4 71.5,105.8 	"/>
	<polygon class="st15" points="48.5,124.3 68.3,139.7 85,134.8 59.8,119.4 	"/>
	<polygon class="st15" points="40.5,127.7 51.1,136.3 61.7,141.7 68.3,139.7 48.5,124.3 	"/>
	<polygon class="st15" points="83.7,21.5 72.3,17.1 77.8,24.7 	"/>
	<polygon class="st15" points="85.2,34.7 115.4,33.6 91.3,24.4 	"/>
	<polygon class="st15" points="91.3,24.4 83.7,21.5 77.8,24.7 85.1,34.7 85.2,34.7 	"/>
</g>
</svg>
