<?xml version="1.0" encoding="utf-8"?>
<!-- Generator: Adobe Illustrator 19.2.1, SVG Export Plug-In . SVG Version: 6.00 Build 0)  -->
<svg version="1.1" id="Camada_1" xmlns="http://www.w3.org/2000/svg" xmlns:xlink="http://www.w3.org/1999/xlink" x="0px" y="0px"
	 viewBox="0 0 413.9 154.5" style="enable-background:new 0 0 413.9 154.5;" xml:space="preserve">
<g>
	<g>
		<path class="st0" d="M100.9,97.5c2.4-2.2,3.6-5.4,3.6-9.5c0-4-1.2-7.1-3.6-9.2c-2.4-2.2-5.6-3.3-9.9-3.3h-8.9v25.2H91
			C95.3,100.8,98.6,99.7,100.9,97.5z"/>
		<path class="st0" d="M97.8,45.7c-2-1.7-5-2.5-8.8-2.5h-7v22.3h7c3.4,0,6.2-0.9,8.4-2.8c2.2-2,3.4-4.8,3.4-8.3C100.9,50.2,99.9,47.3,97.8,45.7z
			"/>
		<path class="st0" d="M82,0v31.6h9c7.2,0,13,1.6,17.3,5c4.4,3.3,6.5,8.3,6.5,15c0,4-1,7.5-3,10.5c-2,2.9-4.8,5.1-8.4,6.7V69
			c4.9,1,8.7,3.4,11.3,7.1c2.6,3.6,3.8,8.2,3.8,13.7c0,3.2-0.5,6.1-1.7,8.9c-1.1,2.7-2.9,5.1-5.3,7.1s-5.5,3.6-9.2,4.8
			c-3.8,1.1-8.2,1.7-13.4,1.7h-6.8v42.1c8.8-4.7,17.5-10.1,26.2-15.1l32.4-19L152.1,25C128.7,16.7,105.4,8.4,82,0z"/>
	</g>
	<g>
		<rect class="st0" x="66.1" y="43.2" width="15.9" height="22.3"/>
		<path class="st0" d="M51.9,112.4V31.7v-0.1H82V0C58.7,8.4,35.4,16.7,12,25.1l11.4,95.3c10.8,6.3,21.6,12.6,32.4,19c8.8,5,17.4,10.4,26.2,15.1
			v-42.1H51.9z"/>
		<rect class="st0" x="66.1" y="75.6" width="16" height="25.2"/>
	</g>
</g>
<text transform="matrix(0.7655 0 0 1 161.8926 100.8301)" class="st0">Bootstrap</text>
</svg>
