<?xml version="1.0" encoding="utf-8"?>
<!-- Generator: Adobe Illustrator 19.2.1, SVG Export Plug-In . SVG Version: 6.00 Build 0)  -->
<svg version="1.1" id="Camada_1" xmlns="http://www.w3.org/2000/svg" xmlns:xlink="http://www.w3.org/1999/xlink" x="0px" y="0px"
	 viewBox="0 0 413.9 154.5" style="enable-background:new 0 0 413.9 154.5;" xml:space="preserve">
<text transform="matrix(0.7655 0 0 1 209.8926 100.8301)" class="st0">CSS3</text>
<g>
	<g>
		<path class="st0" d="M132,0v31.9h13.7c5.9,0.3,9.8,5.1,11.9,14.4L157.5,98c-0.6,9.1-5.3,13.8-14.1,13.9H132v42.6
			c8.8-4.6,17.4-10.1,26.2-15.1l32.4-19l11.4-95.3C178.7,16.7,155.4,8.4,132,0z"/>
		<polygon class="st0" points="141.4,78.9 132,78.9 132,97.8 141.4,97.8 		"/>
		<polygon class="st0" points="142.2,46.3 132,46.3 132,63.8 142.2,63.7 		"/>
	</g>
	<path class="st0" d="M105.3,111.9c2.8-9.3,7.9-14,15.2-14.1H132V78.9l-15.8,0l-0.1-15.1l15.8-0.1V46.3h-11.7
		c-7.7-0.3-12.7-5.1-15.1-14.4H132V0c-23.3,8.4-46.7,16.7-70,25.1l11.4,95.3c10.8,6.3,21.6,12.7,32.4,19c8.7,5,17.4,10.5,26.2,15.1
		v-42.6H105.3z"/>
</g>
</svg>
