<?xml version="1.0" encoding="utf-8"?>
<!-- Generator: Adobe Illustrator 19.2.1, SVG Export Plug-In . SVG Version: 6.00 Build 0)  -->
<svg version="1.1" id="Camada_1" xmlns="http://www.w3.org/2000/svg" xmlns:xlink="http://www.w3.org/1999/xlink" x="0px" y="0px"
	 viewBox="0 0 413.9 154.5" style="enable-background:new 0 0 413.9 154.5;" xml:space="preserve">
<text transform="matrix(0.7655 0 0 1 190.8926 100.8301)" class="st0">HTML 5</text>
<g>
	<polygon class="st0" points="123.4,78.6 112.7,78.6 112.7,97.1 123.5,97.1 	"/>
	<path class="st0" d="M112.7,0v31.7h26c-2.3,8.8-7.9,13.7-16.6,14.8h-9.4v17.1h26V102c0,6.5-3.8,9.9-11.4,10.2h-14.6v42.5
		c8.8-4.6,17.4-10.1,26.2-15.1l32.4-19l11.4-95.3C159.3,16.7,136,8.4,112.7,0z"/>
</g>
<g>
	<path class="st0" d="M86.2,112c2.6-8.3,8.1-13.3,16.6-14.9h9.9V78.6H86.1V43.9c0.1-8,4.4-12.1,12.7-12.3h13.9V0C89.3,8.4,66,16.7,42.6,25.1
		L54,120.4c10.8,6.3,21.6,12.7,32.4,19c8.7,5,17.4,10.5,26.2,15.1V112H86.2z"/>
	<rect class="st0" x="100.7" y="46.4" width="12" height="17.1"/>
</g>
</svg>
