<?xml version="1.0" encoding="utf-8"?>
<!-- Generator: Adobe Illustrator 19.2.1, SVG Export Plug-In . SVG Version: 6.00 Build 0)  -->
<svg version="1.1" id="Camada_1" xmlns="http://www.w3.org/2000/svg" xmlns:xlink="http://www.w3.org/1999/xlink" x="0px" y="0px"
	 viewBox="0 0 413.9 154.5" style="enable-background:new 0 0 413.9 154.5;" xml:space="preserve">
<text transform="matrix(0.7655 0 0 1 159.8926 100.8301)" class="st0">Javascript</text>
<g>
	<path class="st0" d="M80,0v56c0.9-0.3,1.8-0.6,2.8-0.9L80,66v35.1c2.7-4.5,6.6-7.3,11.6-8.2l30.3,0l2.6-10.7H84.7l5.2-20
		c1.3-4.6,5-7,11.1-7.1h40c-1.8,4.7-5.1,7.6-10.1,8.5H98l-2.6,9.8H136l-4.8,19.9c-1.6,4.5-5.2,7.2-10.6,8.1H80v53
		c8.8-4.6,17.4-10.1,26.2-15.1l32.4-19l11.4-95.3C126.7,16.7,103.4,8.4,80,0z"/>
	<path class="st0" d="M79.8,101.5c0.1-0.1,0.2-0.3,0.3-0.4V66L72.7,94c-1.8,3.2-4.7,5.5-8.7,6.8c-0.1,0-0.2,0.1-0.3,0.1
		c-0.1,0-0.2,0.1-0.3,0.1c-0.4,0.1-0.8,0.2-1.3,0.4l0,0c-0.2,0-0.3,0.1-0.5,0.1H22.2l2.1-7.4l3.2-11.9l8.4,0l-2.9,11L64.3,93
		l7.5-28.9c0.2-0.4,0.4-0.8,0.6-1.3l0-0.1c1.5-3.1,4.1-5.3,7.6-6.7V0C56.7,8.4,33.3,16.7,10,25.1l11.4,95.3
		c10.8,6.3,21.6,12.7,32.4,19c8.7,5,17.4,10.5,26.2,15.1v-53H79.8z"/>
</g>
</svg>
