<svg version="1.1" id="Camada_1" xmlns="http://www.w3.org/2000/svg" xmlns:xlink="http://www.w3.org/1999/xlink" x="0px" y="0px"
	 viewBox="0 0 100 60" style="enable-background:new 0 0 100 60;" xml:space="preserve">
<style type="text/css">
	.st0{fill:none;stroke:#000000;stroke-width:0.25;stroke-miterlimit:10;}
	.st1{fill:#FFFFFF;stroke:#000000;stroke-width:0.25;stroke-miterlimit:10;}
</style>
<g>
	<g>
		<path d="M90.8,35.1c-1.5-0.8-2.9-1.6-4.3-2.4c-0.3-0.2-0.5-0.2-0.8-0.1c-10.6,3.5-20.1,7-30.6,10.5c0,1.1,0,1.9,0,2.9
			c11.2-3.3,21.3-6.6,32.5-9.9C88.5,35.7,89.6,35.4,90.8,35.1z"/>
		<polygon class="st0" points="86.1,32.5 82.4,32 55.3,41.7 55,43.1 		"/>
		<polygon class="st0" points="54.1,0.4 55.4,2.1 54.1,51 52.3,51.3 		"/>
		<path d="M54.1,0.4c-0.6,14.3-1.2,36.7-1.8,50.9c-1,0.3-2,0.6-3,0.8c0-0.6,0.4-9.1,0.3-9.7c-11.2-0.5-22.9-1.2-34.2-1.7
			C28.4,27.3,41.2,13.9,54.1,0.4z M49.9,39.8c0.5-10.8,0.9-21.6,1.4-32.4c0,0-0.1,0-0.1,0c-9.8,10.2-19.5,20.3-29.4,30.6
			C31.2,38.6,40.5,39.2,49.9,39.8z"/>
		<polygon class="st0" points="46.9,44.3 48.2,44.9 48.6,44.8 		"/>
		<path d="M13.8,56.6c-0.7,0.2-1.3,0.4-2,0.6c-0.6-1.6-1.2-3.1-1.8-4.6c-0.2-0.4-0.1-0.6,0.2-0.9c3.1-2.9,6.2-5.8,9.3-8.8
			c0.1-0.1,0.2-0.2,0.3-0.4c-0.3,0-0.5,0-0.8-0.1c-1.1,0-2.2-0.1-3.3-0.2c-0.4,0-0.7,0.1-1,0.4c-2.7,2.7-5.4,5.4-8,8.1
			c-0.1,0.1-0.3,0.2-0.4,0.3c0,0.1,0,0.1,0,0.2C6.9,52.7,7.4,54,8,55.3c0.6,1.4,1.2,2.8,1.8,4.2c0.1,0,0.1,0,0.2,0
			c0.2-0.1,0.3-0.2,0.5-0.2c7.9-2.3,15.8-4.7,23.6-7c5.2-1.5,9.3-3.1,14.5-4.6c0-0.9,0-1.7,0-2.8C36.7,48.8,25.8,52.7,13.8,56.6z"/>
		<polygon class="st0" points="19.6,42.9 21.7,41.7 11.5,52.3 12.9,56.3 46.9,44.6 48.6,45 11.8,57.5 10,52.1 		"/>
		<polygon class="st0" points="25.1,38.3 51.2,10.3 51.1,7.3 21.7,37.9 		"/>
		<polygon class="st1" points="49.3,52.1 51.2,52.9 52.3,52.5 54.1,51 		"/>
		<line class="st1" x1="52.3" y1="51.3" x2="51.2" y2="52.9"/>
	</g>
	<polygon class="st0" points="15.3,42.5 16.3,41.3 22.2,41.4 19.9,42.7 	"/>
</g>
</svg>
