<?xml version="1.0" encoding="utf-8"?>
<!-- Generator: Adobe Illustrator 19.2.1, SVG Export Plug-In . SVG Version: 6.00 Build 0)  -->
<svg version="1.1" id="Camada_1" xmlns="http://www.w3.org/2000/svg" xmlns:xlink="http://www.w3.org/1999/xlink" x="0px" y="0px"
	 viewBox="0 0 652.3 256" style="enable-background:new 0 0 652.3 256;" xml:space="preserve">
<g>
	<path class="st1" d="M46.4-61.6h521.7V300H46.4V-61.6z"/>
	<path class="st0" d="M206.1,230.4H192c-0.5-23.8-1.9-46.3-4.1-67.3h-0.1l-21.5,67.3h-10.8l-21.4-67.3H134
		c-1.6,20.2-2.6,42.6-3,67.3h-12.9c0.8-30,2.9-58.1,6.2-84.4h17.5l20.4,62h0.1l20.5-62h16.7C203.3,176.8,205.4,204.9,206.1,230.4
		 M267.3,168.2c-5.8,31.2-13.3,53.9-22.8,68c-7.3,10.9-15.4,16.3-24.1,16.3c-2.3,0-5.2-0.7-8.6-2.1v-7.5c1.7,0.2,3.6,0.4,5.9,0.4
		c4.1,0,7.4-1.1,9.9-3.4c3-2.7,4.5-5.8,4.5-9.2c0-2.3-1.2-7.1-3.5-14.4l-15.5-48.1H227l11.1,36c2.5,8.2,3.5,13.9,3.1,17.1
		c6.1-16.2,10.3-34,12.8-53.1L267.3,168.2L267.3,168.2L267.3,168.2z"/>
	<path class="st0" d="M455.3,230.4h-40.1v-84.4h13.5v74h26.6V230.4z M404.7,232.5l-15.5-7.7c1.4-1.1,2.7-2.4,3.9-3.8
		c6.6-7.7,9.9-19.2,9.9-34.4c0-27.9-11-41.9-32.9-41.9c-10.7,0-19.1,3.5-25.1,10.6c-6.6,7.8-9.9,19.2-9.9,34.3
		c0,14.8,2.9,25.7,8.7,32.6c5.3,6.3,13.4,9.4,24.1,9.4c4,0,7.7-0.5,11-1.5l20.2,11.8L404.7,232.5z M354.5,213.6
		c-3.4-5.5-5.1-14.3-5.1-26.5c0-21.2,6.5-31.9,19.4-31.9c6.8,0,11.7,2.5,14.9,7.6c3.4,5.5,5.1,14.3,5.1,26.3
		c0,21.4-6.5,32.1-19.4,32.1C362.6,221.2,357.6,218.7,354.5,213.6 M329.2,207.1c0,7.2-2.6,13-7.9,17.6c-5.3,4.6-12.3,6.9-21.1,6.9
		c-8.3,0-16.3-2.6-24-7.9l3.6-7.2c6.7,3.3,12.7,5,18.1,5c5.1,0,9.1-1.1,11.9-3.4c2.9-2.2,4.6-5.4,4.6-9.4c0-5-3.5-9.3-9.9-12.9
		c-5.9-3.2-17.7-10-17.7-10c-6.4-4.7-9.6-9.7-9.6-18c0-6.8,2.4-12.4,7.2-16.6c4.8-4.2,11-6.3,18.6-6.3c7.8,0,15,2.1,21.4,6.3
		l-3.3,7.2c-5.5-2.3-10.9-3.5-16.2-3.5c-4.3,0-7.7,1-10,3.1c-2.3,2.1-3.8,4.7-3.8,8c0,5,3.6,9.3,10.2,13c6,3.3,18.1,10.2,18.1,10.2
		C325.9,193.9,329.2,198.9,329.2,207.1"/>
	<path class="st0" d="M472.3,117.8c-8.2-0.2-14.5,0.6-19.8,2.9c-1.5,0.6-4,0.6-4.2,2.5c0.8,0.8,0.9,2.1,1.6,3.3
		c1.2,2,3.4,4.8,5.3,6.2c2.1,1.6,4.3,3.3,6.5,4.7c4,2.5,8.5,3.9,12.3,6.3c2.3,1.4,4.5,3.3,6.7,4.8c1.1,0.8,1.8,2.1,3.3,2.7v-0.3
		c-0.7-0.9-0.9-2.2-1.6-3.3l-3.1-3c-3-4-6.6-7.4-10.6-10.3c-3.3-2.2-10.4-5.3-11.7-9.1l-0.2-0.2c2.2-0.2,4.9-1,7-1.6
		c3.5-0.9,6.6-0.7,10.2-1.6c1.6-0.4,3.3-0.9,4.9-1.4v-0.9c-1.8-1.8-3.2-4.3-5.1-6c-5.2-4.5-10.9-8.9-16.8-12.5
		c-3.2-2-7.2-3.4-10.6-5.1c-1.2-0.6-3.3-0.9-4-1.9c-1.8-2.2-2.9-5.2-4.2-7.9c-2.9-5.6-5.8-11.8-8.4-17.7c-1.8-4-3-7.9-5.2-11.6
		c-10.5-17.3-21.9-27.8-39.5-38.1c-3.8-2.1-8.3-3.1-13-4.2l-7.7-0.4c-1.6-0.7-3.3-2.7-4.7-3.6c-5.8-3.7-20.8-11.6-25.1-1.1
		c-2.8,6.6,4.1,13.2,6.4,16.5c1.7,2.3,4,5,5.2,7.6c0.7,1.7,0.9,3.6,1.6,5.4c1.6,4.5,3.2,9.5,5.3,13.7c1.1,2.1,2.3,4.4,3.8,6.3
		c0.8,1.1,2.2,1.6,2.6,3.5c-1.4,2-1.5,5.1-2.3,7.6c-3.7,11.5-2.2,25.8,3,34.3c1.6,2.5,5.5,8.2,10.7,6c4.6-1.8,3.6-7.6,4.9-12.7
		c0.3-1.2,0.1-2,0.7-2.8v0.2c1.4,2.9,2.9,5.6,4.2,8.5c3.2,5,8.7,10.2,13.3,13.7c2.4,1.8,4.4,5,7.4,6.1v-0.3h-0.2
		c-0.6-0.9-1.5-1.3-2.3-2c-1.8-1.8-3.9-4.1-5.3-6.1c-4.3-5.7-8.1-12-11.4-18.6c-1.6-3.2-3.1-6.6-4.4-9.8c-0.6-1.2-0.6-3.1-1.6-3.7
		c-1.5,2.2-3.8,4.2-4.9,6.9c-1.9,4.4-2.1,9.8-2.9,15.4l-0.4,0.2c-3.2-0.8-4.4-4.2-5.6-7c-3.1-7.2-3.6-18.9-0.9-27.2
		c0.7-2.1,3.8-8.9,2.6-10.9c-0.6-2-2.7-3.1-3.8-4.6c-1.3-1.9-2.8-4.4-3.7-6.5c-2.4-5.7-3.7-12-6.3-17.7c-1.2-2.7-3.4-5.4-5.1-7.9
		c-1.9-2.8-4.1-4.7-5.6-8c-0.5-1.1-1.2-3-0.4-4.2c0.2-0.8,0.6-1.1,1.4-1.3c1.3-1.1,5.1,0.3,6.4,0.9c3.8,1.5,6.9,3,10.1,5.1
		c1.4,1,3,3,4.8,3.5h2.1c3.3,0.7,6.9,0.2,10,1.1c5.4,1.7,10.3,4.3,14.7,7c13.4,8.5,24.4,20.5,31.8,34.9c1.2,2.3,1.7,4.5,2.9,6.9
		c2.1,5,4.8,10.1,6.9,15c2.1,4.8,4.2,9.7,7.2,13.7c1.5,2.1,7.7,3.3,10.4,4.4c2,0.9,5.2,1.7,7,2.8c3.5,2.1,6.9,4.6,10.2,6.9
		C466.9,113.2,472,115.7,472.3,117.8 M368.3,29.2c-1.4,0-2.8,0.2-4.2,0.5v0.2h0.2c0.8,1.6,2.2,2.8,3.3,4.2c0.8,1.6,1.5,3.3,2.3,4.9
		l0.2-0.2c1.4-1,2.2-2.7,2.2-5.1c-0.6-0.7-0.7-1.4-1.2-2.1C370.4,30.5,369.1,30,368.3,29.2"/>
	<path class="st0" d="M482,230.4h2.1v-10.3h-3.2l-2.6,7.1l-2.8-7.1h-3.1v10.3h2v-7.9h0.1l2.9,7.9h1.5l2.9-7.9L482,230.4L482,230.4z
		 M465,230.4h2.2v-8.6h2.9v-1.8h-8.2v1.8h3L465,230.4L465,230.4z"/>
</g>
</svg>
